<?xml version="1.0" standalone="no"?>
<!DOCTYPE svg PUBLIC "-//W3C//DTD SVG 20010904//EN"
 "http://www.w3.org/TR/2001/REC-SVG-20010904/DTD/svg10.dtd">
<svg version="1.0" xmlns="http://www.w3.org/2000/svg"
 width="350.000000pt" height="350.000000pt" viewBox="0 0 350.000000 350.000000"
 preserveAspectRatio="xMidYMid meet">
<metadata>
Created by potrace 1.11, written by Peter Selinger 2001-2013
</metadata>
<g transform="translate(0.000000,350.000000) scale(0.100000,-0.100000)"
fill="#000000" stroke="none">
<path d="M937 3473 c-4 -3 -7 -178 -7 -388 l0 -381 383 0 c210 0 384 3 387 7
3 4 5 177 5 386 l-1 378 -380 3 c-209 1 -383 -1 -387 -5z"/>
<path d="M1825 3470 c-2 -3 -4 -176 -4 -383 0 -287 3 -377 12 -378 13 0 662 0
718 1 l36 0 0 380 c0 209 -3 380 -6 381 -22 4 -754 3 -756 -1z"/>
<path d="M2709 3478 c-4 -9 -3 -761 1 -767 3 -4 177 -7 386 -7 l381 0 -1 385
-1 386 -382 3 c-211 1 -384 1 -384 0z"/>
<path d="M1795 2600 c-3 -5 0 -10 8 -10 13 0 15 -55 14 -387 l0 -388 383 -5
c251 -3 384 -2 386 5 3 6 3 181 2 390 l-3 379 -376 1 c-293 0 -379 3 -392 13
-10 9 -17 10 -22 2z"/>
<path d="M2733 2582 c-16 -2 -23 -10 -23 -25 -1 -33 -1 -667 -1 -708 l1 -35
383 0 382 0 0 380 c0 243 -4 381 -10 383 -14 4 -704 9 -732 5z"/>
<path d="M2725 1682 c-20 -3 -20 -9 -20 -382 0 -208 3 -381 6 -385 8 -8 743
-7 764 1 8 3 12 11 8 17 -3 6 -6 176 -6 379 l1 368 -22 1 c-73 2 -715 3 -731
1z"/>
<path d="M939 1677 c-1 -1 -3 -174 -4 -384 l-1 -381 383 0 383 1 0 384 0 383
-380 0 c-209 0 -381 -2 -381 -3z"/>
<path d="M10 387 l0 -383 383 1 382 0 1 383 1 382 -383 0 -384 0 0 -383z"/>
</g>
</svg>
